<svg width="374" height="92" viewBox="0 0 374 92" fill="none" xmlns="http://www.w3.org/2000/svg">
<path d="M14.042 66.1559L13.3957 65.2159L10.458 67.1548L9.45923 65.6272L17.0972 60.5156L19.1535 63.6296C19.4473 64.0996 19.6236 64.6284 19.6823 65.1571C19.7411 65.6859 19.6236 66.2147 19.3298 66.7435L17.2147 68.1536C16.8621 68.1536 16.5096 68.1536 16.1571 68.0361C15.8046 67.9185 15.4521 67.801 15.1583 67.566L13.9245 70.5037L13.0432 71.0912L12.2794 69.9162L13.9832 66.1559H14.042ZM15.3346 65.7447C15.6871 66.2735 16.1571 66.5672 16.7446 66.5085L17.9785 65.6859C18.096 65.4509 18.1547 65.1571 18.1547 64.8634C18.1547 64.5696 18.0372 64.3346 17.861 64.0408L17.0384 62.807L14.512 64.5109L15.3346 65.7447Z" fill="white"/>
<path d="M22.0915 67.3906L26.0867 71.0333L25.2054 72.0321L22.5027 69.6233L20.8576 71.4446L23.3253 73.6772L22.444 74.676L19.9763 72.4434L18.155 74.441L20.9164 76.9087L20.0351 77.9075L15.9224 74.206L22.0915 67.3906Z" fill="white"/>
<path d="M30.1994 81.9012C30.0232 82.0774 29.7881 82.1949 29.5531 82.3124C29.3181 82.43 29.0244 82.4887 28.7306 82.5475C28.4368 82.5475 28.0843 82.5475 27.7318 82.5475C27.3793 82.4887 27.0267 82.3712 26.6155 82.1362L23.384 80.4323L27.673 72.2656L30.9045 73.9695C31.257 74.1457 31.6095 74.3807 31.8445 74.6745C32.0795 74.9095 32.3145 75.2033 32.432 75.4383C32.5496 75.7321 32.6671 75.9671 32.7258 76.2609C32.7846 76.5546 32.7846 76.7896 32.7258 77.0246L30.1407 81.9599L30.1994 81.9012ZM31.022 76.4959C31.022 76.2021 31.022 75.9671 30.787 75.6733C30.6107 75.3796 30.3169 75.1445 29.9644 74.9683L28.6131 74.2632L25.5579 80.0211L26.9092 80.7261C27.2618 80.9024 27.6143 81.0199 27.9668 81.0199C28.2606 81.0199 28.5543 80.9024 28.7893 80.7261L31.022 76.5546V76.4959Z" fill="white"/>
<path d="M45.1814 84.9574C45.0639 85.1924 44.8877 85.3687 44.7114 85.5449C44.5351 85.7212 44.3001 85.8975 44.0064 86.0737C43.7126 86.1912 43.4188 86.3087 43.0663 86.4262C42.7138 86.485 42.3613 86.5438 41.8912 86.4262L38.2485 86.0737L39.1298 76.9082L42.7725 77.2607C43.1838 77.2607 43.5951 77.3782 43.8889 77.5545C44.2414 77.672 44.4764 77.8483 44.7114 78.0833C44.9464 78.2595 45.1227 78.4945 45.2989 78.7296C45.4752 78.9646 45.5339 79.1996 45.6515 79.4346L45.1227 85.0162L45.1814 84.9574ZM43.8889 79.6696C43.8301 79.4346 43.6538 79.1996 43.3601 78.9646C43.1251 78.7883 42.7725 78.6708 42.3025 78.6121L40.8337 78.4945L40.2461 84.9574L41.715 85.0749C42.1263 85.0749 42.4788 85.0749 42.7725 84.8987C43.0663 84.7812 43.3013 84.5461 43.4188 84.3111L43.8889 79.6109V79.6696Z" fill="white"/>
<path d="M47.8843 77.4378L53.2308 76.6152L53.4658 77.9666L49.8819 78.5541L50.2932 80.963L53.5833 80.4342L53.8184 81.7855L50.5282 82.3143L50.9394 84.9582L54.5822 84.3707L54.8172 85.722L49.3531 86.6033L47.943 77.4965L47.8843 77.4378Z" fill="white"/>
<path d="M55.1696 77.2016L54.7583 76.2616L56.2859 75.6153L60.8686 81.5494L61.1037 81.4319L59.9873 74.0289L61.3974 73.4414L61.8087 74.3815L62.8663 82.8419L60.5749 83.8407L55.1696 77.2604V77.2016Z" fill="white"/>
<path d="M62.9248 72.2665L64.3936 71.209L69.6814 78.7882L68.2126 79.8457L62.9248 72.2665Z" fill="white"/>
<path d="M66.45 69.6812L67.7425 68.3887L73.2653 73.9702L75.4392 71.7964L76.3793 72.7364L72.9128 76.2029L66.45 69.6812Z" fill="white"/>
<path d="M76.2034 68.4476L77.1434 66.9788L77.9072 67.4488C78.1422 67.4488 78.3772 67.4488 78.671 67.2726C78.9648 67.1551 79.1998 66.9201 79.4348 66.5675C79.6698 66.215 79.7873 65.8625 79.7286 65.5687C79.7286 65.275 79.6698 64.9812 79.5523 64.8049L78.671 64.2762C78.4948 64.2762 78.2597 64.2762 78.0835 64.3937C77.9072 64.4524 77.6135 64.6287 77.3197 64.9812L76.7322 65.5687C76.3796 65.9212 76.0859 66.215 75.7921 66.3913C75.4983 66.5675 75.2633 66.7438 75.0283 66.8613C74.7933 66.9788 74.617 67.0376 74.382 67.0376C74.2058 67.0376 74.0295 67.0376 73.8532 67.0376L72.2082 65.98C72.1494 65.8037 72.0319 65.6275 71.9731 65.3925C71.9144 65.1575 71.8556 64.8637 71.7969 64.5112C71.7969 64.1586 71.7969 63.8061 71.9144 63.4536C72.0319 63.0423 72.2082 62.6898 72.4432 62.2198C72.7369 61.8085 72.9719 61.456 73.3245 61.221C73.6182 60.986 73.912 60.751 74.2058 60.6334C74.4995 60.5159 74.7933 60.3984 75.0283 60.3984C75.2633 60.3984 75.4983 60.3984 75.6746 60.3984L76.7322 61.0447L75.7921 62.5136L75.1458 62.1023C74.9108 62.1023 74.6758 62.1023 74.382 62.2785C74.0883 62.396 73.8532 62.6311 73.6182 63.0423C73.3832 63.3949 73.3245 63.7474 73.3245 64.0411C73.3245 64.3349 73.3832 64.6287 73.5007 64.8049L74.2058 65.275C74.382 65.275 74.617 65.275 74.7933 65.1575C74.9696 65.0987 75.2633 64.8637 75.5571 64.5699L76.1446 63.9824C76.4971 63.6299 76.7909 63.3949 77.0847 63.1598C77.3784 62.9836 77.6135 62.8073 77.8485 62.6898C78.0835 62.5723 78.3185 62.5136 78.4948 62.5136C78.671 62.5136 78.8473 62.5136 79.0235 62.5136L80.8449 63.6299C80.9624 63.8061 81.0211 63.9824 81.0799 64.2174C81.1387 64.4524 81.1974 64.7462 81.1974 65.0399C81.1974 65.3337 81.1974 65.6862 81.0799 66.0975C80.9624 66.45 80.7861 66.8613 80.5511 67.3313C80.2574 67.7426 80.0223 68.0951 79.6698 68.3301C79.3173 68.5651 79.0823 68.8002 78.7885 68.9177C78.4948 69.0352 78.201 69.1527 77.966 69.1527C77.731 69.1527 77.496 69.1527 77.3197 69.1527L76.1446 68.4476H76.2034Z" fill="white"/>
<path d="M16.6275 15.981L19.5064 13.5721C19.7414 13.3371 20.0352 13.2195 20.2702 13.102C20.564 12.9845 20.799 12.9258 21.034 12.9258C21.269 12.9258 21.5628 12.9258 21.7978 12.9258C22.0328 12.9258 22.2678 13.0433 22.5028 13.102L23.6779 14.5121C23.6779 14.6884 23.6779 14.9821 23.6779 15.2172C23.6779 15.5109 23.5604 15.7459 23.5017 15.981C23.7367 15.981 23.9717 15.8634 24.2654 15.8634C24.5592 15.8634 24.7942 15.8634 25.0292 15.981L26.4393 17.6848C26.4393 17.9198 26.4393 18.0961 26.4393 18.3898C26.4393 18.6836 26.4393 18.9186 26.3218 19.1536C26.2631 19.3886 26.1456 19.6824 25.9693 19.9174C25.793 20.1524 25.6168 20.3875 25.323 20.6225L22.4441 23.0314L16.51 15.981H16.6275ZM21.6803 16.7447C21.8566 16.5685 22.0328 16.3922 22.0916 16.1572C22.1503 15.9222 22.2091 15.6872 22.1503 15.3934L21.504 14.6296C21.269 14.5121 21.034 14.5121 20.7402 14.5709C20.4465 14.5709 20.2115 14.7471 19.9765 14.9234L18.8014 15.9222L20.4465 17.8611L21.6803 16.8035V16.7447ZM24.2654 19.9174C24.5592 19.6824 24.7355 19.3886 24.853 19.1536C24.9117 18.9186 24.9117 18.6249 24.853 18.3898L24.0304 17.391C23.7954 17.3323 23.5604 17.2735 23.2666 17.391C22.9729 17.391 22.7379 17.5673 22.5028 17.7436L21.269 18.8011L23.0904 20.9162L24.2654 19.9174Z" fill="white"/>
<path d="M25.0881 9.63529L29.9647 7.28516L30.5522 8.51898L27.3208 10.1053L28.3783 12.3379L31.3747 10.8691L31.9623 12.1029L28.9659 13.5718L30.1409 15.9806L33.4899 14.3356L34.0774 15.5694L29.1421 17.9783L25.0881 9.69404V9.63529Z" fill="white"/>
<path d="M33.9009 5.93471L35.6635 5.52344L37.4848 13.1614L40.4813 12.4563L40.775 13.7489L36.016 14.8652L33.9009 5.87596V5.93471Z" fill="white"/>
<path d="M45.828 8.51978H49.0594V11.81C48.9419 11.9862 48.8244 12.2212 48.6482 12.3975C48.4719 12.5738 48.2369 12.8088 48.0019 12.985C47.7081 13.1613 47.4143 13.3376 47.0031 13.4551C46.6506 13.5726 46.1805 13.6313 45.6517 13.6313C45.123 13.6313 44.7117 13.6313 44.3004 13.4551C43.8891 13.3376 43.5954 13.1613 43.3016 12.985C43.0078 12.8088 42.7728 12.5738 42.5966 12.3387C42.4203 12.1037 42.3028 11.8687 42.1853 11.6925V6.11089C42.1853 5.87588 42.3616 5.64087 42.5378 5.40585C42.7141 5.17084 42.9491 4.93583 43.2429 4.75957C43.5366 4.58331 43.8304 4.40705 44.2417 4.28954C44.6529 4.17203 45.0642 4.11328 45.593 4.11328C46.1218 4.11328 46.533 4.11328 46.9443 4.28954C47.2968 4.40705 47.6494 4.58331 47.9431 4.75957C48.2369 4.93583 48.4132 5.17084 48.5894 5.3471C48.7657 5.58211 48.8832 5.75837 49.0007 5.93463V7.40347H47.2968V6.40466C47.1793 6.16965 47.0031 5.93463 46.7093 5.75837C46.4155 5.58211 46.063 5.46461 45.6517 5.46461C45.2405 5.46461 44.888 5.58211 44.5942 5.75837C44.3004 5.93463 44.1242 6.16965 44.0067 6.46341V11.3399C44.1242 11.575 44.3592 11.81 44.6529 11.9862C44.9467 12.1625 45.2992 12.28 45.7105 12.28C46.1805 12.28 46.533 12.1625 46.7681 11.9862C47.0618 11.81 47.2381 11.575 47.3556 11.3399V9.81235H45.828V8.46103V8.51978Z" fill="white"/>
<path d="M53.0544 5.05273L54.817 5.40525L52.9369 14.3945L51.1743 14.042L53.0544 5.05273Z" fill="white"/>
<path d="M55.2284 13.7482L60.6925 7.22656L63.1014 8.28412L62.0438 16.7446L61.6325 17.6847L60.1637 17.0384L60.575 14.277L57.8723 13.1019L56.1685 15.2758L54.8171 14.6882L55.2284 13.7482ZM58.7536 12.0443L60.7512 12.9256L61.28 9.16542L61.1037 9.04791L58.7536 11.9856V12.0443Z" fill="white"/>
<path d="M68.8592 11.4572L70.5043 12.8085L68.918 19.5651L69.0942 19.6827L73.0307 14.8649L74.3233 15.9224L68.4479 23.0316L66.8029 21.6803L68.3892 14.9236L68.2129 14.7474L64.2765 19.5651L62.9839 18.5076L68.8592 11.3984V11.4572Z" fill="white"/>
<path d="M45.4751 0C20.3874 0 0 20.3874 0 45.4751C0 70.5627 20.3874 90.9501 45.4751 90.9501C70.5627 90.9501 90.9501 70.5627 90.9501 45.4751C90.9501 20.3874 70.5627 0 45.4751 0ZM74.793 44.6525C74.793 42.5962 74.4992 40.5985 74.0292 38.6597L88.0125 34.8995C88.7763 38.0134 89.2463 41.2448 89.305 44.5938H74.8517L74.793 44.6525ZM89.305 46.2976C89.2463 49.6466 88.835 52.878 88.0125 55.9919L74.0292 52.2317C74.4992 50.2928 74.7342 48.2952 74.793 46.2389H89.2463L89.305 46.2976ZM73.6179 37.0733C73.0304 35.1345 72.2666 33.2544 71.3265 31.4918L83.841 24.2651C85.4273 27.0853 86.6611 30.1405 87.6012 33.3131L73.6179 37.0733ZM45.4751 1.64509C61.3385 1.64509 75.3218 10.1643 82.9597 22.855L70.4452 30.0817C65.2749 21.7387 55.9919 16.1572 45.4751 16.1572C34.9582 16.1572 25.6164 21.7387 20.4462 30.1405L7.9317 22.9138C15.6284 10.1643 29.6117 1.64509 45.4751 1.64509ZM16.1572 44.6525H1.70385C1.7626 41.3036 2.17387 38.0722 2.99642 34.9582L16.9797 38.7184C16.5097 40.6573 16.2747 42.5962 16.2159 44.6525H16.1572ZM16.921 52.2905L2.93767 56.0507C2.17387 52.9367 1.7626 49.7053 1.64509 46.3564H16.0984C16.0984 48.4127 16.3922 50.4103 16.8622 52.2905H16.921ZM3.40769 33.3719C4.34775 30.1992 5.58156 27.2028 7.1679 24.3239L19.6824 31.5505C18.7423 33.3131 17.9785 35.1345 17.391 37.0733L3.40769 33.3131V33.3719ZM45.4751 89.305C25.4989 89.305 8.63674 75.9093 3.34894 57.637L17.3322 53.8768C20.6812 65.0399 30.493 73.4416 42.4199 74.6755V64.2761C33.8419 62.8661 27.2615 55.4044 27.2615 46.4151V41.5974H24.0301L30.4342 31.3155L36.8383 41.5974H33.3131V46.4151C33.3131 52.0554 37.1908 56.8145 42.4199 58.1658V31.5505H39.071L45.4751 21.2687L51.8792 31.5505H48.4715V58.1658C53.6418 56.8145 57.5195 52.0554 57.5195 46.4739V41.6561H54.1118L60.5159 31.3743L66.92 41.6561H63.5123V46.4739C63.5123 55.4044 56.9907 62.8661 48.4715 64.3349V74.793C60.3984 73.5592 70.269 65.2162 73.6179 53.9943L87.6012 57.7545C82.3134 76.0268 65.4512 89.4225 45.4751 89.4225V89.305Z" fill="white"/>
<g clip-path="url(#clip0_193_990)">
<g clip-path="url(#clip1_193_990)">
<g clip-path="url(#clip2_193_990)">
<path fill-rule="evenodd" clip-rule="evenodd" d="M147.905 58.0518C147.901 58.0694 144.9 72.2178 155.137 72.2178H181.95L178.937 91.207H152.124C152.124 91.207 135.253 92.1106 127.721 79.7529C121.116 68.9408 124.682 56.0339 124.707 55.9424L134.349 0.181641H157.547L147.905 58.0518ZM242.509 27.0059H253.354L250.342 46.8994H239.194L236.482 61.0654C236.464 61.138 234.109 70.4091 243.412 70.4092H251.848L247.932 90.3018H235.277C235.19 90.3099 222.601 91.4628 215.996 78.8477C210.28 67.7115 213.577 54.1712 213.586 54.1328L221.419 10.7305H244.919L242.509 27.0059ZM283.181 27.0059H294.026L291.314 47.2002H280.167L277.456 61.0654C277.441 61.1248 275.076 70.4092 284.386 70.4092H316.622L312.705 90.3018H276.251C276.251 90.3018 263.597 91.5068 256.969 78.8477C251.257 67.7187 254.545 54.1886 254.559 54.1328L262.091 10.7305H285.591L283.181 27.0059ZM181.348 27.0078C200.027 25.5008 211.475 36.9542 211.174 46.2979C210.872 55.9429 197.014 67.9994 177.732 68.3008C158.451 68.6022 152.727 59.2579 152.727 52.627C152.727 45.9958 159.656 31.529 180.143 34.543C180.12 34.5769 172.912 45.4025 173.213 50.8193C173.815 56.2443 176.829 56.2441 179.239 56.2441C181.65 56.244 187.374 55.3393 188.277 44.4893C188.88 37.5569 181.046 30.6245 174.117 31.8301C170.201 32.1315 163.572 33.0357 156.944 36.0498C156.961 36.0281 162.995 28.2118 181.348 27.0078ZM322.947 27.0078C341.626 25.5008 353.075 36.9542 352.773 46.2979C352.472 55.9429 338.614 67.9994 319.332 68.3008C300.05 68.6022 294.326 59.2579 294.326 52.627C294.326 45.9958 301.256 31.529 321.742 34.543C321.717 34.581 314.512 45.4036 314.812 50.8193C315.415 56.2443 318.429 56.2441 320.839 56.2441C323.249 56.244 328.973 55.3393 329.877 44.4893C330.479 37.5569 322.646 30.6245 315.717 31.8301C311.8 32.1315 305.172 33.0357 298.544 36.0498C298.558 36.0319 304.59 28.2121 322.947 27.0078Z" fill="white"/>
</g>
</g>
</g>
<line x1="105.624" y1="2.90374e-08" x2="105.624" y2="91.0089" stroke="white" stroke-width="1.3286"/>
<defs>
<clipPath id="clip0_193_990">
<rect width="273.027" height="91.0486" fill="white" transform="translate(100.973 0.181641)"/>
</clipPath>
<clipPath id="clip1_193_990">
<rect width="273.027" height="91.0486" fill="white" transform="translate(100.973 0.181641)"/>
</clipPath>
<clipPath id="clip2_193_990">
<rect width="273" height="91.0397" fill="white" transform="translate(100.973 0.181641)"/>
</clipPath>
</defs>
</svg>
