<svg data-name="Calque 1" xmlns="http://www.w3.org/2000/svg" viewBox="0 0 55.6 56.1"><defs><linearGradient id="a" data-name="Dégradé sans nom 212" x1="116.1" y1="2145.8" x2="164.5" y2="2182.2" gradientTransform="rotate(-25 -4727.949 1345.015)" gradientUnits="userSpaceOnUse"><stop offset="0" stop-color="#9c0000"/><stop offset="1" stop-color="#ff7070"/></linearGradient></defs><path d="M37.4 40.7c-.9 0-2 .4-2.5 1l-10.3 14c-.5.6-1.1.5-1.3-.3l-4.4-16.8c-.3-.9-.9-1.6-1.8-1.9L.7 31.1c-.8-.2-.9-.8-.2-1.3l14.6-9.3c.8-.5 1.3-1.4 1.3-2.3L16.6.8c0-.8.5-1 1.2-.5l13.4 11c.7.6 1.7.8 2.6.5l16.6-5.2c.8-.2 1.2.2 1 1L45 23.7c-.3.8 0 2 .4 2.7l10 14.1c.5.7.2 1.2-.7 1.1l-17.2-1h-.1z" fill="url(#a)"/></svg>