<svg id="Isolation_Mode" xmlns="http://www.w3.org/2000/svg" version="1.1" viewBox="0 0 395.19 156.47"><defs><style>.st0{fill:#fff}</style></defs><path class="st0" d="M57.25 61.63c.32-.33 12.64-15.6 49.72-15.6 25.99 0 43.87 20.15 43.87 33.47 0 12.35-19.82 39-61.74 37.38-28.92-1.12-38.35-16.58-38.67-27.3-.33-10.72 13.23-36.09 47.35-30.24 0 0-26.13 34.76-2.5 37.39 8.78.97 16.58-10.7 16.58-20.15 0-10.73-8.45-24.37-27.3-22.1-17.5 2.12-27.3 7.15-27.3 7.15zm161.27 20.35h-19.17s-3.99 16.24-5.29 24.69c-1.3 8.45 1.3 15.27 11.37 15.27h15.27l-7.15 33.8s-14.94.32-25.35.32c-13 0-40.62-15.92-34.44-55.24 5.69-36.24 12.77-71.22 14.96-81.87l40.72-.03-4.54 28.28 19.31.02-5.71 34.76zm70.71.09h-19.16s-3.99 16.24-5.28 24.69c-1.3 8.45 1.3 15.27 11.37 15.27h57l-7.14 33.8s-56.68.33-67.08.33c-12.99 0-40.61-15.92-34.44-55.24 5.69-36.24 12.76-71.22 14.96-81.87l40.73-.02-4.55 28.27h19.32l-5.71 34.78z"/><path class="st0" d="M301.59 61.57c.32-.33 12.64-15.6 49.73-15.6 25.99 0 43.87 20.15 43.87 33.47 0 12.35-19.82 39-61.74 37.37-28.92-1.12-38.34-16.57-38.67-27.3-.32-10.72 13.23-36.09 47.35-30.24 0 0-26.14 34.77-2.51 37.39 8.78.98 16.58-10.7 16.58-20.15 0-10.72-8.45-24.37-27.3-22.1-17.5 2.11-27.3 7.15-27.3 7.15zM19.23 0h40.29S43.6 88.39 41.66 99.12c-1.95 10.72-.33 24.37 12.99 24.37h45.82l-5.85 32.82s-36.4.34-46.79 0c-19.5-.65-55.25-10.73-46.47-58.82C10.13 49.4 19.23 0 19.23 0z"/></svg>