<svg xmlns="http://www.w3.org/2000/svg" id="logo-club" viewBox="0 0 120 68.1"><defs><style>.nlc-text{fill:#00af43}</style></defs><g id="logo"><path d="M120 30.7A30.7 30.7 0 0089.3 0H30.7C13.7 0 0 13.7 0 30.7s13.7 30.7 30.7 30.7h16.2v6.8L91 61.4c16.2-.8 29.1-14.2 29.1-30.6z" fill="#fff"/><path class="nlc-text" d="M32.4 19.9c-6 0-10.9 4.9-10.9 10.9s4.9 10.9 10.9 10.9 6.7-3 6.7-6.7-2.6-6.8-6.7-6.7c-1.4 0-2.6-.9-2.6-2.6 0-1.6 1.6-2.5 3.1-2.5 3.6-.2 6.3 2 7.8 5 .6 1.3 1 2.8 1 4.3 0 2.2-.8 4.1-2 5.7 0 .1-.1.3 0 .4.1.1.3.1.4 0 .9-.9 3.2-3.6 3.2-7.7 0-6-4.9-10.9-10.9-10.9m0 10.9c2.3 0 4.1 1.9 4.1 4.1s-1.9 4.1-4.1 4.1-4.1-1.9-4.1-4.1 1.9-4.1 4.1-4.1"/><path class="nlc-text" d="M32.1 12.1c3.8 0 7.4 1 10.2 2.6v5.2c-2.7-2-6.4-3.4-10.3-3.4-8.3 0-14.1 6.2-14.1 14.3s5.8 14.3 14.5 14.3 7.6-1.4 10.4-3.7v5.3c-2.9 1.9-6.9 2.8-10.7 2.8-11 0-19-8-19-18.6S20.6 12.1 32 12.1zm14.2-1.5h4.5v38.3h-4.5V10.6zm8.1 28.7V24.2h4.5v14.2c0 2.7.4 4.1 1.2 5.1 1 1.3 2.5 1.7 3.9 1.7 3.1 0 6-2 7.7-4.2V24.3h4.5v24.6h-4.5v-3.1c-2.2 2.1-5.1 3.7-8.5 3.7s-5.1-.9-6.7-2.8c-1.4-1.7-2-3.9-2-7.4zm26.1-28.7H85v15h.1c1.6-1 4-2 7-2 6.7 0 12 5.1 12 12.5S98.6 49.3 91 49.3s-4.3-.6-6.2-1.3l-4.4.8V10.6zm10.7 34.9c5 0 8.4-3.9 8.4-9s-3.2-8.7-8-8.7-4.9 1-6.5 2.3v13.8c1.6 1 4.1 1.6 6.2 1.6z"/></g></svg>