<svg xmlns="http://www.w3.org/2000/svg" viewBox="0 0 178.6 110.7"><path fill="#fff" d="M33 110h7.2V82.7H33V110zM21.4 82.7l-6.6 12-6.7-12h-7L0 110h7l.5-16 5.4 9.3h4l4.8-9.3.7 16h7.4l-1.3-27.4h-7zm29.7 0H44V110h19.4v-6.5h-12v-21zm114 6.8c0-1.2.8-1.8 2.5-1.8 2 0 5 1.2 6.7 2.5l3.8-5a16.4 16.4 0 00-10.1-3.3c-7.7 0-10.7 4.4-10.7 8.5 0 8.5 13 8.3 13 12 0 1.4-1.5 2.1-3 2.1a11 11 0 01-7.2-3l-4.2 5.3c2.5 2.4 6.4 4 11.4 4 6.4 0 11.2-4.4 11.2-9.1 0-8.9-13.5-8.3-13.5-12.2zm-52.4-7.6c-8.8 0-14.3 6.5-14.3 14.5 0 7.7 5.1 14.4 14.3 14.4A14 14 0 00127 96.2a14 14 0 00-14.3-14.4zm0 22c-3.9 0-6.8-2.9-6.8-7.5s2.8-7.7 6.8-7.7c4.4 0 6.7 3.7 6.7 7.7 0 4.6-2.8 7.6-6.7 7.6zm34.1-5.9l-10.5-15.3h-6.7V110h7.3V94.3l11 15.8h6.1V82.6h-7v15.3zM73.3 82.6H66V110h19.4v-6.5h-12v-21zM88.2 110h7.3V82.5h-7.3V110zm38.5-30.6A14 14 0 00141 65a14 14 0 00-14.3-14.4c-8.7 0-14.3 6.5-14.3 14.4 0 7.8 5.2 14.5 14.3 14.5zm0-22c4.4 0 6.7 3.5 6.7 7.6 0 4.6-2.8 7.6-6.7 7.6-3.9 0-6.8-3-6.8-7.7 0-4.5 2.8-7.6 6.8-7.6zM84.9 68V51.4h-7.4v16c0 3.2-1.3 5.2-4.4 5.2-3.3 0-4.6-2.1-4.6-5.1V51.4h-7.3V68c0 6.1 3.8 11.5 11.9 11.5 8.6 0 11.8-6.3 11.8-11.5zm10.5 1.4h4.2l4.7 9.3h7.8l-5.9-10.5a8.7 8.7 0 004.4-8c0-4.9-3-9-9.8-9H88.3V79h7v-9.4zm0-12.4h4.6c2.2 0 3.3 1.2 3.3 3.4 0 1.9-1.1 3.3-3.2 3.3h-4.7V57zM59 72.5H45.8v-4.7H56V62H45.8v-4.2h12.5v-6.3H38.5v27.4H59v-6.3z"/><linearGradient id="a" x1="709.5" x2="757.9" y1="1035.4" y2="1071.8" gradientTransform="rotate(-25 -1866.8 1856.1)" gradientUnits="userSpaceOnUse"><stop offset="0" stop-color="#a6854a"/><stop offset=".2" stop-color="#bc994f"/><stop offset=".4" stop-color="#c9a752"/><stop offset=".6" stop-color="#ddbe58"/><stop offset=".8" stop-color="#e6c95c"/><stop offset="1" stop-color="#f1d55e"/></linearGradient><path fill="url(#a)" d="M158 40.7c-.9 0-2 .4-2.5 1l-10.3 14c-.5.6-1.1.5-1.3-.3l-4.4-16.8a3 3 0 00-1.8-1.9l-16.4-5.6c-.8-.2-.9-.8-.2-1.3l14.6-9.3a3 3 0 001.3-2.3l.2-17.4c0-.8.5-1 1.2-.5l13.4 11a3 3 0 002.6.5L171 6.6c.8-.2 1.2.2 1 1l-6.4 16.1c-.3.8-.1 2 .4 2.7l10 14.1c.5.7.2 1.2-.7 1.1l-17.2-1z"/><linearGradient id="b" x1="691.8" x2="710.6" y1="1015" y2="1029.1" gradientTransform="rotate(-25 -1866.8 1856.1)" gradientUnits="userSpaceOnUse"><stop offset="0" stop-color="#ae8b4d"/><stop offset=".2" stop-color="#bc994f"/><stop offset=".5" stop-color="#cdad55"/><stop offset=".7" stop-color="#e6c95c"/><stop offset="1" stop-color="#f1d55e"/></linearGradient><path fill="url(#b)" d="M110.8 19.2c-.3 0-.7.2-.9.5l-4 5.5c-.2.3-.4.2-.5-.1l-1.7-6.7c0-.3-.4-.6-.7-.7l-6.3-2.3c-.3 0-.3-.3 0-.5l5.6-3.7c.2-.2.5-.6.5-1V3.5c0-.4.2-.5.5-.2l5.2 4.3c.2.3.7.3 1 .2l6.4-2c.3-.1.4 0 .3.4l-2.4 6.4c-.1.3 0 .8.1 1l3.9 5.7c.2.2 0 .4-.3.4l-6.7-.4z"/><linearGradient id="c" x1="686.6" x2="697.4" y1="1041.9" y2="1049.9" gradientTransform="rotate(-25 -1866.8 1856.1)" gradientUnits="userSpaceOnUse"><stop offset="0" stop-color="#ae8b4d"/><stop offset=".2" stop-color="#bc994f"/><stop offset=".5" stop-color="#cdad55"/><stop offset=".7" stop-color="#e6c95c"/><stop offset="1" stop-color="#f1d55e"/></linearGradient><path fill="url(#c)" d="M111.5 43c-.2 0-.5 0-.6.2l-2.3 3.2c-.1.2-.2.2-.3 0l-1-3.9c0-.2-.2-.4-.4-.5l-3.6-1.2c-.2-.1-.2-.2 0-.3l3.2-2.2c.2 0 .3-.3.3-.5v-4c0-.2.2-.3.3-.2l3 2.6h.6l3.6-1.1c.2 0 .3 0 .2.2l-1.4 3.7.1.7 2.2 3.2c.1.2 0 .3-.1.3l-3.8-.2z"/><linearGradient id="d" x1="659.9" x2="671" y1="1024.7" y2="1033" gradientTransform="rotate(-25 -1866.8 1856.1)" gradientUnits="userSpaceOnUse"><stop offset="0" stop-color="#ae8b4d"/><stop offset=".2" stop-color="#bc994f"/><stop offset=".5" stop-color="#cdad55"/><stop offset=".7" stop-color="#e6c95c"/><stop offset="1" stop-color="#f1d55e"/></linearGradient><path fill="url(#d)" d="M80.2 38.8c-.2 0-.4.1-.5.3l-2.4 3.3c-.1.2-.3.1-.3 0l-1-4c0-.2-.2-.5-.4-.5l-3.8-1.4c-.2 0-.2-.2 0-.3L75 34c.2-.1.3-.4.3-.6v-4.1c0-.2.2-.3.3-.2l3.1 2.7c.2.1.4.2.6.1l3.8-1.2c.2 0 .3 0 .2.2L82 34.8v.6l2.3 3.4c.2.1 0 .3-.1.3l-4-.3z"/><linearGradient id="e" x1="679" x2="686.4" y1="1026.4" y2="1032" gradientTransform="rotate(-25 -1866.8 1856.1)" gradientUnits="userSpaceOnUse"><stop offset="0" stop-color="#ae8b4d"/><stop offset=".2" stop-color="#bc994f"/><stop offset=".5" stop-color="#cdad55"/><stop offset=".7" stop-color="#e6c95c"/><stop offset="1" stop-color="#f1d55e"/></linearGradient><path fill="url(#e)" d="M95.5 31c-.2 0-.3 0-.4.2l-1.6 2.2c0 .1-.2 0-.2 0l-.7-2.7c0-.2-.1-.3-.3-.4l-2.5-.9c-.1 0-.1-.1 0-.2l2.2-1.5.2-.4v-2.8c0-.1.1-.2.2 0l2.1 1.7c.1.1.3.1.4 0l2.5-.8c.2 0 .2 0 .2.2l-1 2.6v.4l1.6 2.3v.2l-2.7-.1z"/><linearGradient id="f" x1="651.5" x2="658.3" y1="1011.4" y2="1016.5" gradientTransform="rotate(-25 -1866.8 1856.1)" gradientUnits="userSpaceOnUse"><stop offset="0" stop-color="#ae8b4d"/><stop offset=".2" stop-color="#bc994f"/><stop offset=".5" stop-color="#cdad55"/><stop offset=".7" stop-color="#e6c95c"/><stop offset="1" stop-color="#f1d55e"/></linearGradient><path fill="url(#f)" d="M63.7 28.8s-.2 0-.3.2L62 31c-.1.1-.2 0-.2 0l-.6-2.5-.3-.3-2.3-.8v-.2l2-1.4.2-.3v-2.6s.1-.1.2 0l1.9 1.6h.4l2.3-.7s.1 0 0 .1l-.8 2.4v.4l1.4 2c.1.2 0 .3 0 .2l-2.5-.1z"/></svg>